<svg xmlns="http://www.w3.org/2000/svg" width="31" height="11" viewBox="0 0 31 11">
    <path fill="#000" fill-rule="evenodd" d="M3.218 4.522a1.59 1.59 0 0 0 1.599-1.578 1.59 1.59 0 0 0-1.6-1.578H1.385v3.156h1.834zM3.18 0C4.822 0 6.185 1.294 6.2 2.915 6.216 4.552 4.872 5.89 3.218 5.89H1.384v2.499a.138.138 0 0 1-.138.136H.138A.137.137 0 0 1 0 8.389V.137C0 .06.062 0 .138 0H3.18zm18.693 0h1.204c.096 0 .173.07.173.156v8.213c0 .086-.077.156-.173.156h-1.204c-.096 0-.173-.07-.173-.156V.156c0-.086.077-.156.173-.156zM10.107 3.1c1.692.017 3.068 1.32 3.068 2.903v3.138c0 .088-.077.159-.172.159h-1.198c-.095 0-.172-.071-.172-.159v-.428c0-.393-.175-.777-.48-1.055-.3-.272-.692-.42-1.105-.412-.845.013-1.533.66-1.533 1.441v.454c0 .088-.077.159-.171.159H7.147c-.095 0-.172-.071-.172-.159v-.415c0-.783.334-1.52.94-2.075a3.185 3.185 0 0 1 2.191-.83 3.315 3.315 0 0 1 1.292.274l.235.103v-.21c0-.756-.602-1.382-1.4-1.455-.611-.057-1.204.224-1.51.715a.133.133 0 0 1-.086.06.15.15 0 0 1-.109-.018L7.47 4.648a.124.124 0 0 1-.044-.174C7.99 3.617 9.02 3.09 10.107 3.1zm9.977.034a.3.3 0 0 1 .018.014c.02.017.035.04.041.068a.14.14 0 0 1 .007.04v4.746c0 1.555-1.375 2.832-3.065 2.848h-.033c-1.231 0-2.342-.657-2.836-1.68a.14.14 0 0 1-.002-.12c.017-.038.05-.07.093-.086l1.104-.42c.087-.031.184.004.223.08.264.527.87.86 1.506.826.824-.042 1.47-.674 1.47-1.44v-.676a3.038 3.038 0 0 1-.215.108c-.411.185-.874.282-1.35.282-.466 0-.929-.097-1.34-.282-.892-.4-1.548-1.205-1.711-2.097-.052-.281-.044-2.015-.043-2.09 0-.044.014-.08.042-.105.056-.05.153-.05.249-.05h.973c.11 0 .263-.001.276.155.006.076 0 1.034 0 1.075 0 .954.162 1.295.443 1.562a1.637 1.637 0 0 0 2.232 0c.28-.267.444-.608.444-1.562 0-.04-.007-.999 0-1.082.002-.014.005-.029.012-.048a.163.163 0 0 1 .028-.043.178.178 0 0 1 .132-.057h1.197a.18.18 0 0 1 .105.034zm10.85 0a.3.3 0 0 1 .018.014c.02.017.035.04.041.068a.14.14 0 0 1 .007.04v4.746c0 1.555-1.375 2.832-3.065 2.848h-.033c-1.231 0-2.342-.657-2.836-1.68a.14.14 0 0 1-.002-.12c.017-.038.05-.07.093-.086l1.104-.42c.087-.031.184.004.223.08.264.527.87.86 1.506.826.824-.042 1.47-.674 1.47-1.44v-.676a3.038 3.038 0 0 1-.215.108c-.411.185-.874.282-1.35.282-.466 0-.929-.097-1.34-.282-.892-.4-1.548-1.205-1.711-2.097-.052-.281-.044-2.015-.043-2.09 0-.044.014-.08.042-.105.056-.05.153-.05.249-.05h.973c.11 0 .263-.001.276.155.006.076 0 1.034 0 1.075 0 .954.162 1.295.443 1.562a1.637 1.637 0 0 0 2.232 0c.28-.267.444-.608.444-1.562 0-.04-.007-.999 0-1.082.002-.014.005-.029.012-.048a.163.163 0 0 1 .028-.043.178.178 0 0 1 .132-.057h1.197a.18.18 0 0 1 .105.034z"/>
</svg>
